<svg width="319" height="37" viewBox="0 0 319 37" fill="none" xmlns="http://www.w3.org/2000/svg">
<g clip-path="url(#clip0_37_292)">
<g clip-path="url(#clip1_37_292)">
<path d="M30.3418 18.5963C32.1166 17.1729 34.8286 14.2166 37.3993 15.0721C39.9308 15.9147 41.1608 18.8728 43.4539 20.0392C45.5236 17.9839 47.5399 15.8915 49.5848 13.8157C51.3501 12.024 53.6393 8.9229 55.9982 7.92262C58.212 6.98451 61.0947 8.65566 60.8552 11.1267C60.6167 13.5958 57.3456 16.0167 55.7243 17.6452C53.7033 19.6745 51.7404 21.7512 49.6783 23.7397C48.1229 25.2392 46.0475 28.6028 43.7688 28.9972C41.6838 29.3581 39.8182 26.901 38.3478 25.7365C36.071 23.9345 33.9001 21.8718 31.5365 20.196C30.9687 19.7933 30.5555 19.2857 30.3408 18.5963H30.3418Z" fill="white"/>
<path d="M72.649 19.0223C72.649 22.4323 72.6471 25.8424 72.649 29.2515C72.649 32.0454 73.2206 35.4341 70.3541 37.1498C68.2462 38.4118 65.4226 37.5683 64.2251 35.4833C62.8357 33.0633 63.6668 28.7143 63.6649 26.0326C63.6611 19.3471 63.5237 12.6467 63.6573 5.96298C63.7155 3.07627 64.768 -0.215009 68.4723 0.013255C71.0364 0.170999 72.6442 2.3293 72.6461 4.70103C72.65 9.47509 72.649 14.2482 72.649 19.0223Z" fill="#68AFB8"/>
<path d="M27.5205 18.9732C27.5205 22.3053 27.5129 25.6374 27.5186 28.9686C27.5224 31.5064 28.3163 35.1048 25.8888 36.8613C23.9469 38.2671 21.1863 37.9293 19.6452 36.0902C17.7673 33.8503 18.7273 29.4056 18.7282 26.762C18.7301 19.8027 18.7292 12.8434 18.7311 5.88417C18.7311 3.31016 19.2435 0.750075 22.2598 0.113533C24.6158 -0.383824 27.5138 1.35785 27.5167 3.88361C27.5234 8.91285 27.5215 13.943 27.5215 18.9723L27.5205 18.9732Z" fill="#68AFB8"/>
<path d="M81.049 18.8294C81.049 21.73 81.0557 24.6297 81.049 27.5303C81.0443 29.6543 80.7799 31.9546 78.2445 32.631C72.2501 34.2317 73.8226 23.9384 73.8207 20.97C73.8179 16.9299 73.4448 12.5966 73.9037 8.4888C74.4095 3.95692 81.0261 3.89568 81.0414 8.59273C81.0519 12.0046 81.049 15.4175 81.049 18.8294Z" fill="#68AFB8"/>
<path d="M17.3619 18.7829C17.3619 21.4284 17.3456 24.0748 17.358 26.7202C17.3676 28.6679 17.8523 30.9357 15.9009 32.1745C14.399 33.1274 12.4065 32.7284 11.2605 31.4368C9.82533 29.8185 10.3234 27.2807 10.3273 25.3293C10.3368 20.3984 10.3387 15.4675 10.3215 10.5367C10.3149 8.54816 10.2843 6.18572 12.4571 5.22255C14.2568 4.42548 17.3542 5.3274 17.358 7.585C17.3647 11.318 17.3628 15.0509 17.3628 18.7829H17.3619Z" fill="#68AFB8"/>
<path d="M9.15737 18.6512C9.15737 20.9032 10.292 26.3751 7.57621 27.4617C3.66482 29.028 4.07609 23.4939 4.07991 21.5138C4.08277 19.8723 4.08277 18.2309 4.07991 16.5894C4.078 15.0853 3.65146 12.9084 4.14002 11.4692C5.02364 8.86738 9.22512 8.97224 9.17264 12.0121C9.13447 14.2242 9.15642 16.4372 9.15642 18.6503L9.15737 18.6512Z" fill="#68AFB8"/>
<path d="M87.3002 18.6725C87.3002 21.0173 88.4644 26.363 85.5654 27.4319C81.9813 28.7533 82.2208 23.9662 82.2199 22.0297C82.2199 20.3632 82.2189 18.6967 82.2189 17.0301C82.2189 15.3655 81.7637 12.9316 82.3096 11.3541C83.1855 8.82375 87.263 9.11975 87.2907 11.9359C87.3126 14.1815 87.2992 16.427 87.2992 18.6716L87.3002 18.6725Z" fill="#68AFB8"/>
<path d="M3.10075 21.4042C2.8746 21.6158 2.64081 21.8338 2.39271 22.0649C0.835405 22.0649 0.385962 21.8839 0.172214 20.4522C0.0424389 19.5827 -0.177035 16.6886 0.255232 15.9027C0.662689 15.1613 1.62265 14.6528 2.52249 15.2077C3.49103 15.8052 3.1017 17.52 3.1017 18.4544V21.4042H3.10075Z" fill="#68AFB8"/>
<path d="M91.2078 21.1333C90.6152 22.013 89.8519 22.1939 88.9224 22.0287C88.7373 21.845 88.5102 21.6195 88.2774 21.3885C88.2774 20.1581 87.6848 16.5253 88.4882 15.5854C89.2392 14.7066 91.1992 14.8486 91.2059 16.2665C91.2135 17.907 91.2088 19.5466 91.2088 21.1324L91.2078 21.1333Z" fill="#68AFB8"/>
<path d="M102.716 26V7.34097H105.568L113.725 20.9621H112.232L120.255 7.34097H123.108L123.134 26H119.856L119.829 12.4855H120.522L113.698 23.8675H112.152L105.222 12.4855H106.021V26H102.716ZM129.027 31.3578C128.334 31.3578 127.641 31.2423 126.948 31.0113C126.255 30.7803 125.677 30.4604 125.215 30.0517L126.548 27.5993C126.886 27.9014 127.268 28.1413 127.694 28.3191C128.121 28.4968 128.556 28.5856 129.001 28.5856C129.605 28.5856 130.093 28.4346 130.467 28.1325C130.84 27.8304 131.186 27.3239 131.506 26.6131L132.333 24.7472L132.599 24.3473L137.984 11.7658H141.182L134.518 27.1462C134.074 28.2124 133.576 29.0565 133.026 29.6785C132.492 30.3005 131.888 30.7358 131.213 30.9846C130.555 31.2334 129.827 31.3578 129.027 31.3578ZM131.959 26.5065L125.535 11.7658H129.001L134.225 24.0541L131.959 26.5065ZM147.983 26L141.799 7.34097H145.397L150.915 24.2141H149.129L154.86 7.34097H158.059L163.63 24.2141H161.897L167.548 7.34097H170.853L164.669 26H160.991L155.9 10.7796H156.859L151.688 26H147.983ZM178.687 26.1866C177.23 26.1866 175.932 25.8756 174.795 25.2536C173.658 24.6139 172.76 23.7431 172.103 22.6414C171.445 21.5396 171.116 20.2868 171.116 18.8829C171.116 17.4613 171.445 16.2085 172.103 15.1245C172.76 14.0227 173.658 13.1608 174.795 12.5388C175.932 11.9169 177.23 11.6059 178.687 11.6059C180.162 11.6059 181.468 11.9169 182.605 12.5388C183.76 13.1608 184.658 14.0138 185.297 15.0978C185.955 16.1818 186.284 17.4435 186.284 18.8829C186.284 20.2868 185.955 21.5396 185.297 22.6414C184.658 23.7431 183.76 24.6139 182.605 25.2536C181.468 25.8756 180.162 26.1866 178.687 26.1866ZM178.687 23.3344C179.504 23.3344 180.233 23.1567 180.872 22.8013C181.512 22.4459 182.01 21.9306 182.365 21.2553C182.738 20.58 182.925 19.7892 182.925 18.8829C182.925 17.9588 182.738 17.1681 182.365 16.5106C182.01 15.8353 181.512 15.3199 180.872 14.9645C180.233 14.6091 179.513 14.4314 178.713 14.4314C177.896 14.4314 177.167 14.6091 176.528 14.9645C175.906 15.3199 175.408 15.8353 175.035 16.5106C174.662 17.1681 174.475 17.9588 174.475 18.8829C174.475 19.7892 174.662 20.58 175.035 21.2553C175.408 21.9306 175.906 22.4459 176.528 22.8013C177.167 23.1567 177.887 23.3344 178.687 23.3344ZM189.47 26V11.7658H192.642V15.6842L192.269 14.538C192.695 13.5784 193.362 12.8498 194.268 12.3523C195.192 11.8547 196.338 11.6059 197.706 11.6059V14.7779C197.564 14.7424 197.431 14.7246 197.307 14.7246C197.182 14.7068 197.058 14.698 196.933 14.698C195.672 14.698 194.668 15.0711 193.921 15.8175C193.175 16.5461 192.802 17.639 192.802 19.0962V26H189.47ZM203.252 22.828L203.332 18.643L210.769 11.7658H214.767L208.45 18.1099L206.69 19.576L203.252 22.828ZM200.533 26V6.22143H203.865V26H200.533ZM211.275 26L206.077 19.576L208.183 16.9104L215.327 26H211.275ZM223.304 26.1866C221.847 26.1866 220.549 25.8756 219.412 25.2536C218.275 24.6139 217.377 23.7431 216.72 22.6414C216.062 21.5396 215.734 20.2868 215.734 18.8829C215.734 17.4613 216.062 16.2085 216.72 15.1245C217.377 14.0227 218.275 13.1608 219.412 12.5388C220.549 11.9169 221.847 11.6059 223.304 11.6059C224.779 11.6059 226.085 11.9169 227.222 12.5388C228.377 13.1608 229.275 14.0138 229.914 15.0978C230.572 16.1818 230.901 17.4435 230.901 18.8829C230.901 20.2868 230.572 21.5396 229.914 22.6414C229.275 23.7431 228.377 24.6139 227.222 25.2536C226.085 25.8756 224.779 26.1866 223.304 26.1866ZM223.304 23.3344C224.121 23.3344 224.85 23.1567 225.49 22.8013C226.129 22.4459 226.627 21.9306 226.982 21.2553C227.356 20.58 227.542 19.7892 227.542 18.8829C227.542 17.9588 227.356 17.1681 226.982 16.5106C226.627 15.8353 226.129 15.3199 225.49 14.9645C224.85 14.6091 224.13 14.4314 223.331 14.4314C222.513 14.4314 221.784 14.6091 221.145 14.9645C220.523 15.3199 220.025 15.8353 219.652 16.5106C219.279 17.1681 219.092 17.9588 219.092 18.8829C219.092 19.7892 219.279 20.58 219.652 21.2553C220.025 21.9306 220.523 22.4459 221.145 22.8013C221.784 23.1567 222.504 23.3344 223.304 23.3344ZM240.111 26.1866C238.903 26.1866 237.837 25.9645 236.912 25.5202C235.988 25.0582 235.269 24.3651 234.753 23.441C234.238 22.4992 233.98 21.3175 233.98 19.8958V11.7658H237.312V19.4427C237.312 20.7222 237.597 21.6818 238.165 22.3215C238.752 22.9435 239.578 23.2545 240.644 23.2545C241.426 23.2545 242.101 23.0945 242.67 22.7747C243.257 22.4548 243.71 21.975 244.03 21.3352C244.367 20.6955 244.536 19.9047 244.536 18.9629V11.7658H247.868V26H244.696V22.1616L245.256 23.3344C244.776 24.2585 244.074 24.9693 243.15 25.4669C242.226 25.9467 241.213 26.1866 240.111 26.1866ZM257.588 26.1866C256.025 26.1866 254.816 25.7868 253.963 24.9871C253.11 24.1696 252.684 22.9701 252.684 21.3886V8.62045H256.016V21.3086C256.016 21.9839 256.184 22.5081 256.522 22.8813C256.878 23.2545 257.366 23.441 257.988 23.441C258.735 23.441 259.357 23.2456 259.854 22.8546L260.787 25.227C260.396 25.5469 259.916 25.7868 259.348 25.9467C258.779 26.1066 258.193 26.1866 257.588 26.1866ZM250.338 14.538V11.8724H259.827V14.538H250.338ZM263.848 26V7.34097H267.313V23.0679H277.069V26H263.848ZM285.752 26.1866C284.295 26.1866 282.998 25.8756 281.861 25.2536C280.723 24.6139 279.826 23.7431 279.168 22.6414C278.511 21.5396 278.182 20.2868 278.182 18.8829C278.182 17.4613 278.511 16.2085 279.168 15.1245C279.826 14.0227 280.723 13.1608 281.861 12.5388C282.998 11.9169 284.295 11.6059 285.752 11.6059C287.227 11.6059 288.533 11.9169 289.671 12.5388C290.826 13.1608 291.723 14.0138 292.363 15.0978C293.02 16.1818 293.349 17.4435 293.349 18.8829C293.349 20.2868 293.02 21.5396 292.363 22.6414C291.723 23.7431 290.826 24.6139 289.671 25.2536C288.533 25.8756 287.227 26.1866 285.752 26.1866ZM285.752 23.3344C286.57 23.3344 287.298 23.1567 287.938 22.8013C288.578 22.4459 289.075 21.9306 289.431 21.2553C289.804 20.58 289.991 19.7892 289.991 18.8829C289.991 17.9588 289.804 17.1681 289.431 16.5106C289.075 15.8353 288.578 15.3199 287.938 14.9645C287.298 14.6091 286.579 14.4314 285.779 14.4314C284.961 14.4314 284.233 14.6091 283.593 14.9645C282.971 15.3199 282.474 15.8353 282.1 16.5106C281.727 17.1681 281.541 17.9588 281.541 18.8829C281.541 19.7892 281.727 20.58 282.1 21.2553C282.474 21.9306 282.971 22.4459 283.593 22.8013C284.233 23.1567 284.953 23.3344 285.752 23.3344ZM302.986 31.3578C301.671 31.3578 300.383 31.1801 299.121 30.8247C297.877 30.4871 296.855 29.9895 296.056 29.332L297.548 26.8263C298.17 27.3417 298.952 27.7504 299.894 28.0525C300.854 28.3724 301.822 28.5323 302.799 28.5323C304.363 28.5323 305.509 28.168 306.238 27.4394C306.967 26.7286 307.331 25.6535 307.331 24.2141V21.6818L307.597 18.4564L307.491 15.2311V11.7658H310.663V23.8409C310.663 26.4176 310.005 28.3102 308.69 29.5186C307.375 30.7447 305.474 31.3578 302.986 31.3578ZM302.56 25.3603C301.209 25.3603 299.983 25.0759 298.881 24.5073C297.797 23.9209 296.935 23.1123 296.295 22.0816C295.673 21.0509 295.362 19.8425 295.362 18.4564C295.362 17.0881 295.673 15.8886 296.295 14.8579C296.935 13.8272 297.797 13.0275 298.881 12.4589C299.983 11.8902 301.209 11.6059 302.56 11.6059C303.768 11.6059 304.852 11.8458 305.812 12.3256C306.771 12.8054 307.535 13.5518 308.104 14.5647C308.69 15.5776 308.984 16.8748 308.984 18.4564C308.984 20.038 308.69 21.3441 308.104 22.3748C307.535 23.3877 306.771 24.143 305.812 24.6406C304.852 25.1204 303.768 25.3603 302.56 25.3603ZM303.066 22.5348C303.901 22.5348 304.648 22.3659 305.305 22.0283C305.963 21.6729 306.469 21.1931 306.824 20.5889C307.198 19.9669 307.384 19.2561 307.384 18.4564C307.384 17.6567 307.198 16.9548 306.824 16.3506C306.469 15.7286 305.963 15.2577 305.305 14.9379C304.648 14.6002 303.901 14.4314 303.066 14.4314C302.231 14.4314 301.476 14.6002 300.8 14.9379C300.143 15.2577 299.627 15.7286 299.254 16.3506C298.899 16.9548 298.721 17.6567 298.721 18.4564C298.721 19.2561 298.899 19.9669 299.254 20.5889C299.627 21.1931 300.143 21.6729 300.8 22.0283C301.476 22.3659 302.231 22.5348 303.066 22.5348Z" fill="white"/>
</g>
</g>
<defs>
<clipPath id="clip0_37_292">
<rect width="318.495" height="36.6911" fill="white"/>
</clipPath>
<clipPath id="clip1_37_292">
<rect width="318.495" height="36.6911" fill="white"/>
</clipPath>
</defs>
</svg>
