<svg width="220" height="121" viewBox="0 0 220 121" fill="none" xmlns="http://www.w3.org/2000/svg">
<g clip-path="url(#clip0_37_294)">
<g clip-path="url(#clip1_37_294)">
<path d="M5.22097 115.098V96.4394H8.07314L16.2298 110.06H14.7371L22.7605 96.4394H25.6126L25.6393 115.098H22.3606L22.334 101.584H23.027L16.2031 112.966H14.6571L7.72661 101.584H8.52629V115.098H5.22097ZM31.5323 120.456C30.8392 120.456 30.1462 120.341 29.4531 120.11C28.7601 119.879 28.1825 119.559 27.7205 119.15L29.0533 116.698C29.3909 117 29.773 117.24 30.1995 117.417C30.626 117.595 31.0614 117.684 31.5056 117.684C32.1098 117.684 32.5985 117.533 32.9717 117.231C33.3449 116.929 33.6914 116.422 34.0113 115.711L34.8376 113.846L35.1042 113.446L40.4886 100.864H43.6873L37.0234 116.245C36.5791 117.311 36.0815 118.155 35.5307 118.777C34.9975 119.399 34.3933 119.834 33.7181 120.083C33.0606 120.332 32.332 120.456 31.5323 120.456ZM34.4644 115.605L28.0404 100.864H31.5056L36.7302 113.153L34.4644 115.605ZM50.4879 115.098L44.3037 96.4394H47.9023L53.42 113.312H51.6341L57.365 96.4394H60.5637L66.1348 113.312H64.4022L70.0532 96.4394H73.3585L67.1744 115.098H63.4959L58.4046 99.8779H59.3642L54.193 115.098H50.4879ZM81.1918 115.285C79.7346 115.285 78.4373 114.974 77.3 114.352C76.1627 113.712 75.2653 112.842 74.6078 111.74C73.9503 110.638 73.6215 109.385 73.6215 107.981C73.6215 106.56 73.9503 105.307 74.6078 104.223C75.2653 103.121 76.1627 102.259 77.3 101.637C78.4373 101.015 79.7346 100.704 81.1918 100.704C82.6667 100.704 83.9728 101.015 85.1102 101.637C86.2652 102.259 87.1626 103.112 87.8024 104.196C88.4599 105.28 88.7887 106.542 88.7887 107.981C88.7887 109.385 88.4599 110.638 87.8024 111.74C87.1626 112.842 86.2652 113.712 85.1102 114.352C83.9728 114.974 82.6667 115.285 81.1918 115.285ZM81.1918 112.433C82.0092 112.433 82.7378 112.255 83.3775 111.9C84.0173 111.544 84.5148 111.029 84.8703 110.354C85.2434 109.678 85.43 108.888 85.43 107.981C85.43 107.057 85.2434 106.266 84.8703 105.609C84.5148 104.934 84.0173 104.418 83.3775 104.063C82.7378 103.707 82.0181 103.53 81.2184 103.53C80.401 103.53 79.6724 103.707 79.0326 104.063C78.4107 104.418 77.9131 104.934 77.5399 105.609C77.1667 106.266 76.9801 107.057 76.9801 107.981C76.9801 108.888 77.1667 109.678 77.5399 110.354C77.9131 111.029 78.4107 111.544 79.0326 111.9C79.6724 112.255 80.3921 112.433 81.1918 112.433ZM91.9748 115.098V100.864H95.1469V104.783L94.7737 103.636C95.2002 102.677 95.8666 101.948 96.7729 101.451C97.697 100.953 98.8432 100.704 100.211 100.704V103.876C100.069 103.841 99.936 103.823 99.8116 103.823C99.6872 103.805 99.5629 103.796 99.4385 103.796C98.1768 103.796 97.1727 104.17 96.4264 104.916C95.68 105.644 95.3068 106.737 95.3068 108.195V115.098H91.9748ZM105.757 111.926L105.837 107.741L113.274 100.864H117.272L110.955 107.208L109.196 108.674L105.757 111.926ZM103.038 115.098V95.3198H106.37V115.098H103.038ZM113.78 115.098L108.582 108.674L110.688 106.009L117.832 115.098H113.78ZM125.809 115.285C124.352 115.285 123.054 114.974 121.917 114.352C120.78 113.712 119.882 112.842 119.225 111.74C118.567 110.638 118.239 109.385 118.239 107.981C118.239 106.56 118.567 105.307 119.225 104.223C119.882 103.121 120.78 102.259 121.917 101.637C123.054 101.015 124.352 100.704 125.809 100.704C127.284 100.704 128.59 101.015 129.727 101.637C130.882 102.259 131.78 103.112 132.42 104.196C133.077 105.28 133.406 106.542 133.406 107.981C133.406 109.385 133.077 110.638 132.42 111.74C131.78 112.842 130.882 113.712 129.727 114.352C128.59 114.974 127.284 115.285 125.809 115.285ZM125.809 112.433C126.626 112.433 127.355 112.255 127.995 111.9C128.634 111.544 129.132 111.029 129.487 110.354C129.861 109.678 130.047 108.888 130.047 107.981C130.047 107.057 129.861 106.266 129.487 105.609C129.132 104.934 128.634 104.418 127.995 104.063C127.355 103.707 126.635 103.53 125.836 103.53C125.018 103.53 124.29 103.707 123.65 104.063C123.028 104.418 122.53 104.934 122.157 105.609C121.784 106.266 121.597 107.057 121.597 107.981C121.597 108.888 121.784 109.678 122.157 110.354C122.53 111.029 123.028 111.544 123.65 111.9C124.29 112.255 125.009 112.433 125.809 112.433ZM142.616 115.285C141.408 115.285 140.342 115.063 139.418 114.619C138.493 114.157 137.774 113.464 137.258 112.539C136.743 111.598 136.485 110.416 136.485 108.994V100.864H139.817V108.541C139.817 109.821 140.102 110.78 140.67 111.42C141.257 112.042 142.083 112.353 143.149 112.353C143.931 112.353 144.607 112.193 145.175 111.873C145.762 111.553 146.215 111.073 146.535 110.434C146.872 109.794 147.041 109.003 147.041 108.061V100.864H150.373V115.098H147.201V111.26L147.761 112.433C147.281 113.357 146.579 114.068 145.655 114.565C144.731 115.045 143.718 115.285 142.616 115.285ZM160.093 115.285C158.53 115.285 157.321 114.885 156.468 114.085C155.615 113.268 155.189 112.069 155.189 110.487V97.7188H158.521V110.407C158.521 111.082 158.69 111.606 159.027 111.98C159.383 112.353 159.871 112.539 160.493 112.539C161.24 112.539 161.862 112.344 162.359 111.953L163.292 114.325C162.901 114.645 162.421 114.885 161.853 115.045C161.284 115.205 160.698 115.285 160.093 115.285ZM152.843 103.636V100.971H162.333V103.636H152.843ZM166.353 115.098V96.4394H169.818V112.166H179.574V115.098H166.353ZM188.257 115.285C186.8 115.285 185.503 114.974 184.366 114.352C183.228 113.712 182.331 112.842 181.673 111.74C181.016 110.638 180.687 109.385 180.687 107.981C180.687 106.56 181.016 105.307 181.673 104.223C182.331 103.121 183.228 102.259 184.366 101.637C185.503 101.015 186.8 100.704 188.257 100.704C189.732 100.704 191.038 101.015 192.176 101.637C193.331 102.259 194.228 103.112 194.868 104.196C195.525 105.28 195.854 106.542 195.854 107.981C195.854 109.385 195.525 110.638 194.868 111.74C194.228 112.842 193.331 113.712 192.176 114.352C191.038 114.974 189.732 115.285 188.257 115.285ZM188.257 112.433C189.075 112.433 189.803 112.255 190.443 111.9C191.083 111.544 191.58 111.029 191.936 110.354C192.309 109.678 192.496 108.888 192.496 107.981C192.496 107.057 192.309 106.266 191.936 105.609C191.58 104.934 191.083 104.418 190.443 104.063C189.803 103.707 189.084 103.53 188.284 103.53C187.467 103.53 186.738 103.707 186.098 104.063C185.476 104.418 184.979 104.934 184.605 105.609C184.232 106.266 184.046 107.057 184.046 107.981C184.046 108.888 184.232 109.678 184.605 110.354C184.979 111.029 185.476 111.544 186.098 111.9C186.738 112.255 187.458 112.433 188.257 112.433ZM205.491 120.456C204.176 120.456 202.888 120.278 201.626 119.923C200.382 119.585 199.36 119.088 198.561 118.43L200.053 115.925C200.675 116.44 201.457 116.849 202.399 117.151C203.359 117.471 204.327 117.631 205.305 117.631C206.868 117.631 208.015 117.266 208.743 116.538C209.472 115.827 209.836 114.752 209.836 113.312V110.78L210.103 107.555L209.996 104.329V100.864H213.168V112.939C213.168 115.516 212.51 117.409 211.195 118.617C209.88 119.843 207.979 120.456 205.491 120.456ZM205.065 114.459C203.714 114.459 202.488 114.174 201.386 113.606C200.302 113.019 199.44 112.211 198.801 111.18C198.179 110.149 197.868 108.941 197.868 107.555C197.868 106.186 198.179 104.987 198.801 103.956C199.44 102.926 200.302 102.126 201.386 101.557C202.488 100.989 203.714 100.704 205.065 100.704C206.273 100.704 207.357 100.944 208.317 101.424C209.276 101.904 210.04 102.65 210.609 103.663C211.195 104.676 211.489 105.973 211.489 107.555C211.489 109.136 211.195 110.443 210.609 111.473C210.04 112.486 209.276 113.241 208.317 113.739C207.357 114.219 206.273 114.459 205.065 114.459ZM205.571 111.633C206.406 111.633 207.153 111.464 207.81 111.127C208.468 110.771 208.974 110.291 209.33 109.687C209.703 109.065 209.889 108.354 209.889 107.555C209.889 106.755 209.703 106.053 209.33 105.449C208.974 104.827 208.468 104.356 207.81 104.036C207.153 103.699 206.406 103.53 205.571 103.53C204.736 103.53 203.981 103.699 203.305 104.036C202.648 104.356 202.132 104.827 201.759 105.449C201.404 106.053 201.226 106.755 201.226 107.555C201.226 108.354 201.404 109.065 201.759 109.687C202.132 110.291 202.648 110.771 203.305 111.127C203.981 111.464 204.736 111.633 205.571 111.633Z" fill="#303E3F"/>
<path d="M80.8254 35.6836C84.0709 33.0807 89.03 27.6747 93.7309 29.2392C98.3602 30.7798 100.609 36.1892 104.803 38.3221C108.587 34.5637 112.274 30.7374 116.014 26.9417C119.242 23.6652 123.428 17.9945 127.741 16.1654C131.79 14.4499 137.061 17.5058 136.623 22.0244C136.187 26.5396 130.205 30.9665 127.241 33.9444C123.545 37.6553 119.956 41.4527 116.185 45.0889C113.34 47.8309 109.545 53.9818 105.378 54.7029C101.566 55.363 98.1543 50.8699 95.4654 48.7404C91.3019 45.4452 87.3322 41.6733 83.01 38.6088C81.9718 37.8724 81.2162 36.9443 80.8236 35.6836H80.8254Z" fill="#303E3F"/>
<path d="M158.808 34.7808C158.808 41.0165 158.805 47.2522 158.808 53.4862C158.808 58.5953 159.854 64.792 154.612 67.9293C150.757 70.237 145.594 68.6946 143.404 64.8819C140.863 60.4567 142.383 52.5038 142.38 47.6001C142.373 35.3747 142.122 23.1221 142.366 10.9001C142.472 5.62142 144.397 -0.3971 151.171 0.0203113C155.859 0.308766 158.8 4.25551 158.803 8.59251C158.81 17.3225 158.808 26.0508 158.808 34.7808Z" fill="#68AFB8"/>
<path d="M76.2852 34.6909C76.2852 40.7841 76.2712 46.8773 76.2817 52.9688C76.2887 57.6095 77.7405 64.1897 73.3013 67.4017C69.7504 69.9723 64.7023 69.3547 61.8842 65.9916C58.4502 61.8956 60.2056 53.768 60.2073 48.9338C60.2108 36.2078 60.2091 23.4819 60.2126 10.7559C60.2126 6.04904 61.1496 1.36759 66.6653 0.203593C70.9736 -0.705888 76.273 2.47899 76.2782 7.09766C76.2904 16.2943 76.2869 25.4926 76.2869 34.6892L76.2852 34.6909Z" fill="#68AFB8"/>
<path d="M174.169 34.428C174.169 39.7321 174.181 45.0346 174.169 50.3388C174.16 54.2228 173.677 58.4291 169.041 59.6661C158.079 62.593 160.955 43.7705 160.951 38.3425C160.946 30.9546 160.264 23.0306 161.103 15.5189C162.028 7.23177 174.127 7.11978 174.155 15.7089C174.174 21.9481 174.169 28.1889 174.169 34.428Z" fill="#68AFB8"/>
<path d="M57.7087 34.3431C57.7087 39.1806 57.679 44.0199 57.7017 48.8575C57.7191 52.419 58.6055 56.566 55.0372 58.8312C52.2906 60.5738 48.6472 59.8442 46.5515 57.4822C43.9272 54.523 44.838 49.8823 44.845 46.314C44.8624 37.2972 44.8659 28.2804 44.8345 19.2637C44.8223 15.6275 44.7665 11.3074 48.7397 9.54616C52.0306 8.08861 57.6947 9.73789 57.7017 13.8662C57.7139 20.6924 57.7104 27.5186 57.7104 34.3431H57.7087Z" fill="#68AFB8"/>
<path d="M42.7056 34.1022C42.7056 38.2203 44.7804 48.2263 39.8143 50.2132C32.6618 53.0774 33.4139 42.9577 33.4208 39.3368C33.4261 36.3351 33.4261 33.3335 33.4208 30.3319C33.4174 27.5814 32.6374 23.6007 33.5308 20.969C35.1466 16.2112 42.8295 16.4029 42.7336 21.9616C42.6638 26.0068 42.7039 30.0536 42.7039 34.1005L42.7056 34.1022Z" fill="#68AFB8"/>
<path d="M185.6 34.1412C185.6 38.429 187.729 48.2042 182.428 50.1589C175.874 52.5751 176.312 43.8214 176.31 40.2802C176.31 37.2327 176.308 34.1853 176.308 31.1378C176.308 28.0938 175.476 23.6431 176.474 20.7586C178.076 16.1314 185.532 16.6727 185.583 21.8224C185.623 25.9287 185.598 30.0349 185.598 34.1395L185.6 34.1412Z" fill="#68AFB8"/>
<path d="M31.6303 39.1365C31.2168 39.5233 30.7893 39.9221 30.3356 40.3446C27.4879 40.3446 26.666 40.0137 26.2751 37.3956C26.0378 35.8057 25.6365 30.5134 26.4269 29.0762C27.172 27.7205 28.9274 26.7906 30.5729 27.8053C32.344 28.898 31.6321 32.0337 31.6321 33.7424V39.1365H31.6303Z" fill="#68AFB8"/>
<path d="M192.746 38.6411C191.662 40.2496 190.266 40.5805 188.566 40.2785C188.228 39.9425 187.813 39.5302 187.387 39.1077C187.387 36.8577 186.303 30.2148 187.772 28.4959C189.146 26.8891 192.73 27.1487 192.742 29.7414C192.756 32.7413 192.747 35.7395 192.747 38.6394L192.746 38.6411Z" fill="#68AFB8"/>
</g>
</g>
<defs>
<clipPath id="clip0_37_294">
<rect width="219.036" height="121" fill="white"/>
</clipPath>
<clipPath id="clip1_37_294">
<rect width="219.036" height="121" fill="white"/>
</clipPath>
</defs>
</svg>
